<svg height="512pt" viewBox="0 0 512 512" width="512pt" xmlns="http://www.w3.org/2000/svg"><path d="m390.117188 321.457031-161.785157 97.578125-197.363281-119.039062v-67.882813l-30.96875 27.871094v252.015625h456.667969v-190.542969zm0 0"/><path d="m332.027344 321.457031h-80.359375v-206.417969h144.03125v-115.039062h-334.730469v283.058594l167.363281 100.941406zm-221.359375-216.792969c0-24.8125 20.1875-45 45-45s45 20.1875 45 45c0 24.816407-20.1875 45-45 45s-45-20.183593-45-45zm86.664062 91.667969h-83.332031v-30h83.332031zm0 0"/><path d="m170.667969 104.664062c0 8.285157-6.714844 15-15 15-8.285157 0-15-6.714843-15-15 0-8.28125 6.714843-15 15-15 8.285156 0 15 6.71875 15 15zm0 0"/><path d="m281.667969 145.042969v146.417969h230.332031v-67.792969h-81.332031v-30h81.332031v-48.625zm51 48.625h30v30h-30zm0 0"/></svg>